<svg viewBox="0 0 44 45" xmlns="http://www.w3.org/2000/svg">
<g clip-path="url(#clip0_8_803)">
<path d="M25.5423 7.49999C27.0336 7.50145 28.4634 8.09451 29.5179 9.14902C30.5724 10.2035 31.1655 11.6333 31.1669 13.1247C31.1669 13.6109 31.3601 14.0772 31.7039 14.421C32.0477 14.7648 32.514 14.958 33.0003 14.958C33.4865 14.958 33.9528 14.7648 34.2966 14.421C34.6404 14.0772 34.8336 13.6109 34.8336 13.1247V13C34.8336 12.9652 34.8336 12.934 34.8336 12.8992C34.7724 10.475 33.7668 8.17059 32.0312 6.47709C30.2956 4.78359 27.9672 3.83494 25.5423 3.83332H23.8336V1.99999C23.8336 1.51376 23.6404 1.04744 23.2966 0.703627C22.9528 0.359811 22.4865 0.166656 22.0003 0.166656C21.514 0.166656 21.0477 0.359811 20.7039 0.703627C20.3601 1.04744 20.1669 1.51376 20.1669 1.99999V3.83332H18.4583C16.2533 3.83568 14.1211 4.62209 12.4427 6.05198C10.7643 7.48188 9.64912 9.46207 9.29646 11.6386C8.94381 13.8151 9.37668 16.0461 10.5177 17.9329C11.6587 19.8196 13.4336 21.239 15.5249 21.9375L20.1669 23.4867V36.8333H18.4583C16.967 36.8319 15.5371 36.2388 14.4826 35.1843C13.4281 34.1298 12.8351 32.7 12.8336 31.2087C12.8336 30.7224 12.6404 30.2561 12.2966 29.9123C11.9528 29.5685 11.4865 29.3753 11.0003 29.3753C10.514 29.3753 10.0477 29.5685 9.7039 29.9123C9.36009 30.2561 9.16693 30.7224 9.16693 31.2087V31.3333C9.16693 31.3682 9.16693 31.3993 9.16693 31.4342C9.22812 33.8583 10.2337 36.1627 11.9693 37.8562C13.7049 39.5497 16.0333 40.4984 18.4583 40.5H20.1669V42.3333C20.1669 42.8196 20.3601 43.2859 20.7039 43.6297C21.0477 43.9735 21.514 44.1667 22.0003 44.1667C22.4865 44.1667 22.9528 43.9735 23.2966 43.6297C23.6404 43.2859 23.8336 42.8196 23.8336 42.3333V40.5H25.5423C27.7472 40.4976 29.8794 39.7112 31.5578 38.2813C33.2362 36.8514 34.3514 34.8712 34.7041 32.6947C35.0567 30.5182 34.6238 28.2872 33.4828 26.4004C32.3418 24.5137 30.567 23.0943 28.4756 22.3958L23.8336 20.8467V7.49999H25.5423ZM27.3206 25.8718C28.5882 26.2937 29.6643 27.153 30.3561 28.2959C31.0479 29.4388 31.3104 30.7907 31.0964 32.1094C30.8825 33.4281 30.2061 34.6277 29.1884 35.4932C28.1708 36.3588 26.8782 36.8338 25.5423 36.8333H23.8336V24.7095L27.3206 25.8718ZM20.1669 19.6238L16.6836 18.4615C15.4163 18.0397 14.3404 17.1807 13.6486 16.0382C12.9567 14.8957 12.694 13.5442 12.9075 12.2257C13.1209 10.9072 13.7966 9.70773 14.8137 8.84189C15.8307 7.97604 17.1226 7.50037 18.4583 7.49999H20.1669V19.6238Z"/>
</g>
</svg>
