<svg viewBox="0 0 26 26" xmlns="http://www.w3.org/2000/svg">
<g clip-path="url(#clip0_2_2682)">
<path d="M13 12.9999C14.2856 12.9999 15.5423 12.6187 16.6112 11.9045C17.6801 11.1903 18.5132 10.1751 19.0052 8.98738C19.4972 7.79967 19.6259 6.49273 19.3751 5.23186C19.1243 3.97098 18.5052 2.81279 17.5962 1.90375C16.6872 0.994707 15.529 0.375642 14.2681 0.124838C13.0072 -0.125966 11.7003 0.00275532 10.5126 0.494725C9.32484 0.986695 8.30968 1.81982 7.59545 2.88874C6.88122 3.95765 6.5 5.21436 6.5 6.49994C6.50172 8.22332 7.18709 9.87562 8.40571 11.0942C9.62432 12.3129 11.2766 12.9982 13 12.9999ZM13 2.16661C13.8571 2.16661 14.6949 2.42075 15.4075 2.89691C16.1201 3.37306 16.6755 4.04983 17.0035 4.84165C17.3315 5.63346 17.4173 6.50475 17.2501 7.34533C17.0829 8.18592 16.6702 8.95804 16.0641 9.56407C15.4581 10.1701 14.686 10.5828 13.8454 10.75C13.0048 10.9172 12.1335 10.8314 11.3417 10.5034C10.5499 10.1754 9.87312 9.62003 9.39697 8.90741C8.92081 8.1948 8.66667 7.35699 8.66667 6.49994C8.66667 5.35067 9.12321 4.24847 9.93587 3.43581C10.7485 2.62315 11.8507 2.16661 13 2.16661V2.16661Z"/>
<path d="M13 15.1673C10.415 15.1702 7.93673 16.1983 6.10888 18.0262C4.28102 19.8541 3.25287 22.3323 3.25 24.9173C3.25 25.2046 3.36414 25.4802 3.5673 25.6834C3.77047 25.8865 4.04602 26.0007 4.33333 26.0007C4.62065 26.0007 4.8962 25.8865 5.09937 25.6834C5.30253 25.4802 5.41667 25.2046 5.41667 24.9173C5.41667 22.9061 6.21562 20.9773 7.63777 19.5551C9.05992 18.133 10.9888 17.334 13 17.334C15.0112 17.334 16.9401 18.133 18.3622 19.5551C19.7844 20.9773 20.5833 22.9061 20.5833 24.9173C20.5833 25.2046 20.6975 25.4802 20.9006 25.6834C21.1038 25.8865 21.3793 26.0007 21.6667 26.0007C21.954 26.0007 22.2295 25.8865 22.4327 25.6834C22.6359 25.4802 22.75 25.2046 22.75 24.9173C22.7471 22.3323 21.719 19.8541 19.8911 18.0262C18.0633 16.1983 15.585 15.1702 13 15.1673V15.1673Z"/>
</g>
</svg>
